<svg width="512" height="512" xmlns="http://www.w3.org/2000/svg"><path d="M96 0H32A32 32 0 0 0 0 32v64h128V32A32 32 0 0 0 96 0ZM0 384h128V128H0Zm0 96a32 32 0 0 0 32 32h64a32 32 0 0 0 32-32v-64H0Zm513.62-17.78L401.08 42.71l-60.26 16.14 112.35 418.8c.11.39.2.79.29 1.18l60.29-16.15c-.04-.15-.09-.3-.13-.46zM160 480a32 32 0 0 0 32 32h64a32 32 0 0 0 32-32v-64H160ZM256 0h-64a32 32 0 0 0-32 32v64h124.79l-8-29.65a23.94 23.94 0 0 1 11.17-27V32A32 32 0 0 0 256 0Zm-96 384h128V128H160Z" style="opacity:.4" transform="matrix(.88892 0 0 .88892 0 28.437)"/><path d="M0 398.227h113.781V369.78H0Zm0-256.008h113.781v-28.446H0Zm511.279 282.364L409.249 44.242A21.236 21.236 0 0 0 383.31 29.13h-.08l-13.68 3.752a21.334 21.334 0 0 0-15.023 26.098l102.039 380.333a21.236 21.236 0 0 0 25.939 15.111h.08l13.671-3.751a21.334 21.334 0 0 0 15.023-26.09zm-369.052-26.356h113.781V369.78H142.227ZM300.8 72.687a21.236 21.236 0 0 0-25.939-15.111h-.08l-13.68 3.751a21.334 21.334 0 0 0-15.023 26.099l7.111 26.356H142.227v28.445h113.781V124.44l92.11 343.318a21.236 21.236 0 0 0 25.939 15.112h.08l13.671-3.752a21.334 21.334 0 0 0 15.023-26.072z" class="fa-primary"/></svg>