<?xml version="1.0" encoding="UTF-8" standalone="no"?>
<svg
   xmlns:dc="http://purl.org/dc/elements/1.1/"
   xmlns:cc="http://creativecommons.org/ns#"
   xmlns:rdf="http://www.w3.org/1999/02/22-rdf-syntax-ns#"
   xmlns:svg="http://www.w3.org/2000/svg"
   xmlns="http://www.w3.org/2000/svg"
   id="Layer_2"
   height="512"
   viewBox="0 0 512.00001 512"
   width="512"
   data-name="icon"
   version="1.1">
  <metadata
     id="metadata528">
    <rdf:RDF>
      <cc:Work
         rdf:about="">
        <dc:format>image/svg+xml</dc:format>
        <dc:type
           rdf:resource="http://purl.org/dc/dcmitype/StillImage" />
        <dc:title></dc:title>
      </cc:Work>
    </rdf:RDF>
  </metadata>
  <defs
     id="defs526" />
  <g
     id="g546"
     transform="matrix(7.9994295,0,0,7.9994295,0.01823515,0.00433044)">
    <path
       id="path491"
       fill="#e90d39"
       d="M 28,10 A 15.93,15.93 0 0 0 23,4 16.073,16.073 0 0 0 14,1 15.008,15.008 0 0 0 14,16 l 0.242,0.343" />
    <path
       id="path493"
       fill="#e90d39"
       d="m 36,10 a 15.93,15.93 0 0 1 5,-6 16.073,16.073 0 0 1 9,-3 15.008,15.008 0 0 1 0,15 l -0.222,0.37" />
    <path
       id="path495"
       fill="#d0d2d3"
       d="M 53,26 V 41.69 A 16,16 0 0 1 45.88,55 L 34.22,62.33 A 4.035,4.035 0 0 1 30,62.47 C 29.92,62.42 29.85,62.38 29.78,62.33 L 18.12,55 A 16,16 0 0 1 11,41.69 V 26 A 16,16 0 0 1 27,10 h 10 a 16,16 0 0 1 16,16 z" />
    <path
       id="path497"
       opacity="0.3"
       fill="#f0f1f1"
       d="M 30,10 V 62.47 C 29.92,62.42 29.85,62.38 29.78,62.33 L 18.12,55 A 16,16 0 0 1 11,41.69 V 26 A 16,16 0 0 1 27,10 Z" />
    <path
       id="path499"
       fill="#470718"
       d="M 28,37 V 34.045 A 7,7 0 0 0 23.214,27.4 L 16,25 c 0,0 2,11 12,12 z" />
    <path
       id="path501"
       fill="#470718"
       d="M 36,37 V 34.045 A 7,7 0 0 1 40.786,27.4 L 48,25 c 0,0 -2,11 -12,12 z" />
    <g
       id="g521"
       fill="#1e0202">
      <path
         id="path503"
         d="m 10,41.688 a 16.977,16.977 0 0 0 7.593,14.159 l 11.634,7.313 a 5.009,5.009 0 0 0 2.78,0.844 4.945,4.945 0 0 0 2.744,-0.829 L 46.43,55.832 A 16.966,16.966 0 0 0 54,41.688 a 1,1 0 0 0 -1,-1 0.988,0.988 0 0 0 -0.939,0.7 L 45.5,45.132 a 1,1 0 1 0 0.992,1.736 l 5.348,-3.056 a 14.943,14.943 0 0 1 -6.5,10.341 L 33.664,61.5 A 3,3 0 0 1 30.313,61.485 L 18.68,54.168 A 14.963,14.963 0 0 1 12.156,43.812 l 5.344,3.056 a 1,1 0 0 0 0.992,-1.736 L 12,41.42 v -4.5 l 8.427,5.9 a 1,1 0 1 0 1.146,-1.639 L 12,34.479 V 30 a 1,1 0 0 0 -2,0 z" />
      <path
         id="path505"
         d="m 11,27 a 1,1 0 0 0 1,-1 15.016,15.016 0 0 1 15,-15 h 10 a 15.016,15.016 0 0 1 15,15 v 8.479 l -9.573,6.7 a 1,1 0 1 0 1.146,1.639 L 52,36.921 V 37 a 1,1 0 0 0 2,0 V 26 A 16.894,16.894 0 0 0 50.96,16.325 15.994,15.994 0 0 0 50.867,0.5 0.984,0.984 0 0 0 49.978,0 17.167,17.167 0 0 0 40.414,3.189 16.916,16.916 0 0 0 35.388,9 H 28.612 A 16.916,16.916 0 0 0 23.586,3.189 17.185,17.185 0 0 0 14.022,0 1.064,1.064 0 0 0 13.132,0.5 15.972,15.972 0 0 0 13.043,16.317 16.893,16.893 0 0 0 10,26 1,1 0 0 0 11,27 Z M 41.586,4.811 a 15.1,15.1 0 0 1 7.835,-2.784 13.967,13.967 0 0 1 0.172,12.594 17.066,17.066 0 0 0 -5.149,-3.88 L 46.8,7.6 A 1,1 0 1 0 45.2,6.4 L 42.541,9.946 A 16.884,16.884 0 0 0 37.672,9.034 14.822,14.822 0 0 1 41.586,4.811 Z M 13,8.033 A 14.107,14.107 0 0 1 14.58,2.026 15.121,15.121 0 0 1 22.415,4.81 14.822,14.822 0 0 1 26.329,9.034 16.884,16.884 0 0 0 21.46,9.946 L 18.8,6.4 a 1,1 0 1 0 -1.6,1.2 l 2.355,3.141 A 17.067,17.067 0 0 0 14.407,14.62 14.01,14.01 0 0 1 13,8.033 Z" />
      <path
         id="path507"
         d="m 25.52,51.448 a 5.015,5.015 0 0 0 6.48,-1.333 4.981,4.981 0 0 0 6.48,1.333 l 1.016,-0.58 a 1,1 0 0 0 0.211,-0.161 l 2,-2 -1.414,-1.414 -1.905,1.907 -0.9,0.514 A 3,3 0 0 1 33,47.107 V 42 h -2 v 5.107 a 3,3 0 0 1 -4.488,2.6 l -1.064,-0.606 -2,-1 -0.895,1.789 1.951,0.974 z" />
      <path
         id="path509"
         d="m 27,22 a 1,1 0 0 0 0,-2 h -4 a 1,1 0 0 0 0,2 z" />
      <path
         id="path511"
         d="m 36,21 a 1,1 0 0 0 1,1 h 4 a 1,1 0 0 0 0,-2 h -4 a 1,1 0 0 0 -1,1 z" />
      <path
         id="path513"
         d="m 15.345,24.244 a 1,1 0 0 0 -0.328,0.935 C 15.037,25.3 17.273,36.933 27.9,38 H 28 a 1,1 0 0 0 1,-1 v -2.955 a 7.99,7.99 0 0 0 -5.47,-7.589 l -7.214,-2.4 a 0.992,0.992 0 0 0 -0.971,0.188 z m 7.555,4.109 a 5.993,5.993 0 0 1 4.1,5.692 v 1.8 c -6.1,-1.161 -8.632,-6.506 -9.556,-9.312 z" />
      <path
         id="path515"
         d="m 48.983,25.179 a 1,1 0 0 0 -1.3,-1.127 l -7.214,2.4 A 7.99,7.99 0 0 0 35,34.045 V 37 a 1,1 0 0 0 1,1 h 0.1 C 46.727,36.933 48.963,25.3 48.983,25.179 Z M 37,35.847 v -1.8 a 5.993,5.993 0 0 1 4.1,-5.692 l 5.453,-1.817 C 45.632,29.341 43.1,34.686 37,35.847 Z" />
      <path
         id="path517"
         d="m 37,14 h -1 a 1,1 0 0 0 0,2 h 1 a 1,1 0 0 0 0,-2 z" />
      <path
         id="path519"
         d="m 41,16 a 1,1 0 0 0 0,-2 h -1 a 1,1 0 0 0 0,2 z" />
    </g>
  </g>
</svg>
