<?xml version="1.0" encoding="UTF-8" standalone="no"?>
<svg
   xmlns:dc="http://purl.org/dc/elements/1.1/"
   xmlns:cc="http://creativecommons.org/ns#"
   xmlns:rdf="http://www.w3.org/1999/02/22-rdf-syntax-ns#"
   xmlns:svg="http://www.w3.org/2000/svg"
   xmlns="http://www.w3.org/2000/svg"
   version="1.1"
   id="Capa_1"
   x="0px"
   y="0px"
   viewBox="0 0 512.00002 512.00001"
   xml:space="preserve"
   width="512"
   height="512"><metadata
   id="metadata170"><rdf:RDF><cc:Work
       rdf:about=""><dc:format>image/svg+xml</dc:format><dc:type
         rdf:resource="http://purl.org/dc/dcmitype/StillImage" /><dc:title></dc:title></cc:Work></rdf:RDF></metadata><defs
   id="defs168" />





















<g
   id="g196"
   transform="matrix(0.60937658,0,0,0.60937658,99.999748,100.0007)"><path
     style="fill:#ed4c74"
     d="m 199.98,386.143 -3.18,-15.89 -24.811,-15.26 -18.27,3.84 7.03,35.161 c 3.079,15.304 0.85,31.432 -6.36,45.241 -7.723,15.044 -17.637,21.403 -24.531,28.621 -7.81,7.81 -7.81,20.47 0,28.281 7.81,7.81 20.48,7.81 28.291,0 4.912,-5.665 27.156,-20.579 38.351,-54.061 6,-18.012 7.2,-37.352 3.48,-55.933 z"
     id="path117" /><g
     id="g123">
	<path
   style="fill:#78d4ff"
   d="m 382.124,15.845 c 7.81,7.81 7.81,20.47 0,28.281 l -13.4,13.98 c -5.04,5.04 -9.29,10.87 -12.56,17.21 -1.63,3.16 -3.02,6.44 -4.15,9.82 -3.8,11.41 -4.57,23.651 -2.21,35.431 l 7.03,35.151 -13.84,8.27 c -10.69,-4.41 -18.18,-17.85 -29.231,-19.68 l -3.18,-15.9 c -3.72,-18.59 -2.52,-37.931 3.49,-55.921 5.32,-15.99 14.44,-30.751 26.361,-42.661 l 13.4,-13.98 c 7.809,-7.811 20.48,-7.811 28.29,-10e-4 z"
   id="path119" />
	<path
   style="fill:#78d4ff"
   d="m 368.253,198.799 0.01,-0.03 -22.27,-13.78 -21.54,3.11 c 13.211,39.079 3.461,82.272 -26.311,112.042 -29.677,29.677 -72.838,39.567 -112.052,26.311 -18.671,-6.291 6.263,-0.471 -43.781,-10.69 -9.211,-0.975 -36.207,-11.578 -71.822,0.3 -30.882,10.293 -44.865,29.566 -54.641,37.771 -7.81,7.81 -7.81,20.48 0,28.291 7.81,7.81 20.47,7.81 28.281,0 11.75,-10.639 19.832,-21.705 39.021,-28.121 25.983,-8.638 43.566,0.896 70.572,4.83 l 10.38,2.08 c 55.668,22.965 119.271,10.57 162.333,-32.481 34.69,-34.701 49.591,-82.882 41.82,-129.633 z"
   id="path121" />
</g><path
     style="fill:#ed4c74"
     d="m 496.136,130.438 c -7.81,-7.81 -20.47,-7.81 -28.281,0 -11.357,10.613 -19.732,23.19 -40.431,30.111 -25.947,8.648 -43.56,-0.889 -70.592,-4.83 l -10.37,-2.07 c -10.69,-4.41 -21.65,-7.51 -32.701,-9.34 -46.761,-7.77 -94.942,7.13 -129.633,41.821 -34.691,34.691 -49.591,82.872 -41.821,129.633 l 43.781,10.69 c -13.2,-39.092 -3.439,-82.283 26.321,-112.042 29.749,-29.749 72.97,-39.528 112.042,-26.311 17.479,5.869 -4.383,0.997 43.811,10.67 20.822,4.201 41.97,9.671 71.812,-0.27 32.675,-10.926 47.257,-32.214 56.061,-39.781 7.811,-7.811 7.811,-20.471 0.001,-28.281 z"
     id="path125" /><path
     d="m 417.474,80.057 c 3.91,-3.9 3.91,-10.23 0,-14.14 -3.9,-3.9 -10.23,-3.91 -14.14,0 -3.9,3.91 -3.9,10.24 0,14.14 3.91,3.91 10.24,3.91 14.14,0 z"
     id="path127" /><path
     d="m 261.911,263.911 c -3.91,3.91 -3.9,10.24 0,14.14 3.91,3.91 10.24,3.91 14.14,0 3.91,-3.9 3.91,-10.23 0,-14.14 -3.9,-3.91 -10.23,-3.9 -14.14,0 z"
     id="path129" /><path
     d="m 79.487,417.474 c 3.9,-3.9 3.75,-10.08 -0.16,-13.98 -3.9,-3.91 -10.08,-4.06 -13.99,-0.16 -3.9,3.91 -3.9,10.24 0,14.14 3.91,3.91 10.24,3.91 14.15,0 z"
     id="path131" /><path
     d="M 51.101,389.291 63,377.967 c 0.06,-0.057 0.119,-0.115 0.178,-0.173 2.626,-2.626 5.487,-4.984 8.559,-7.068 l 70.099,70.098 c -2.056,3.031 -4.389,5.868 -6.985,8.474 l -4.82,4.586 -22.263,-22.262 c -3.905,-3.905 -10.237,-3.905 -14.142,0 -3.905,3.905 -3.905,10.237 0,14.142 l 23.292,23.292 c -5.229,10.924 -3.541,24.74 5.867,34.149 11.597,11.596 30.517,11.814 42.339,0.094 l 11.89,-11.324 c 0.058,-0.055 0.115,-0.111 0.172,-0.167 12.994,-12.983 22.952,-29.086 28.8,-46.574 10.981,-32.965 3.386,-62.577 3.323,-63.43 45.169,3.335 90.89,-13.006 124.195,-46.302 32.903,-32.912 49.683,-78.484 46.307,-124.198 21.406,4.338 42.043,3.805 63.434,-3.322 17.478,-5.844 33.581,-15.801 46.561,-28.793 l 13.4,-13.4 c 11.723,-11.723 11.725,-30.698 0,-42.423 -9.405,-9.405 -23.22,-11.097 -34.148,-5.868 L 445.765,94.206 c -3.905,-3.905 -10.237,-3.905 -14.143,0 -3.905,3.905 -3.905,10.237 0,14.143 l 22.089,22.089 -6.329,6.329 c -2.618,2.619 -5.484,4.98 -8.558,7.069 L 368.722,73.734 c 2.084,-3.066 4.446,-5.931 7.071,-8.556 0.05,-0.05 0.099,-0.101 0.148,-0.151 l 13.334,-13.912 c 11.613,-11.703 11.586,-30.672 -0.082,-42.341 -11.699,-11.698 -30.734,-11.698 -42.434,0 -0.05,0.05 -0.099,0.101 -0.148,0.151 l -13.323,13.902 c -12.98,12.994 -22.905,29.073 -28.7,46.489 -6.557,19.628 -7.875,40.74 -3.811,61.051 l 0.476,2.38 c -45.719,-3.376 -91.291,13.406 -124.194,46.309 -32.903,32.903 -49.684,78.474 -46.308,124.194 l -2.38,-0.476 c -20.302,-4.063 -41.414,-2.749 -61.045,3.799 -17.426,5.809 -33.496,15.73 -46.481,28.698 L 8.952,346.589 c -0.06,0.057 -0.119,0.115 -0.178,0.173 -11.698,11.699 -11.698,30.735 0,42.434 11.651,11.649 30.609,11.708 42.327,0.095 z m 94.12,-21.957 c 3.679,23.187 9.774,34.88 5.28,53.87 l -59.14,-59.14 c 8.275,-1.956 16.904,-2.125 25.248,-0.454 z m 41.795,71.569 c -4.853,14.515 -13.11,27.887 -23.882,38.675 l -11.881,11.315 c -0.059,0.056 -0.117,0.113 -0.175,0.17 -3.907,3.908 -10.24,3.908 -14.147,0 -3.883,-3.882 -3.908,-10.152 -0.073,-14.065 l 11.875,-11.3 c 0.06,-0.057 0.119,-0.115 0.178,-0.173 9.173,-9.174 15.549,-20.218 19.137,-30.955 9.092,-27.324 0.223,-46.87 -1.373,-59.95 7.074,2.572 14.312,4.642 21.64,6.191 0.459,4.847 9.039,29.061 -1.299,60.092 z M 365.332,147.221 c -3.658,-23.089 -9.773,-34.821 -5.265,-53.858 l 59.133,59.132 c -19.005,4.503 -30.581,-1.579 -53.868,-5.274 z M 323.561,75.644 c 4.833,-14.526 13.111,-27.924 23.94,-38.744 0.051,-0.051 0.101,-0.102 0.151,-0.154 l 13.314,-13.891 c 3.905,-3.839 10.205,-3.818 14.085,0.062 3.898,3.897 3.898,10.24 0,14.138 -0.05,0.05 -0.099,0.101 -0.148,0.151 l -13.33,13.907 c -8.698,8.722 -15.204,19.363 -19.049,30.864 -9.123,27.395 -0.21,47.108 1.354,59.959 -7.073,-2.572 -14.308,-4.64 -21.63,-6.188 -0.46,-4.855 -9.051,-29.084 1.313,-60.104 z M 191.202,193.201 c 39.074,-39.074 98.399,-52.191 151.448,-30.308 1.697,0.7 -0.842,-0.043 47.372,9.659 13.469,2.71 27.497,1.84 40.574,-2.52 11.377,-3.802 22.105,-10.298 30.932,-19.123 l 13.4,-13.399 c 3.906,-3.907 10.23,-3.908 14.138,0 3.907,3.907 3.908,10.23 0,14.137 l -13.402,13.403 c -10.803,10.812 -24.207,19.099 -38.748,23.962 -16.356,5.449 -33.925,6.541 -50.781,3.168 -47.119,-9.568 -47.525,-9.276 -49.492,-10.122 -14.396,-6.17 -30.443,-9.729 -47.17,-9.729 -31.655,0 -61.747,12.624 -84.133,35.01 -27.662,27.663 -39.777,66.379 -33.308,104.17 l -20.794,-4.159 c -4.815,-41.802 9.846,-84.033 39.964,-114.149 z m 75.4,117.829 -65.08,-65.08 c 3.15,-6.045 6.901,-11.745 11.244,-17.041 l 20.863,20.863 c 3.905,3.905 10.237,3.905 14.143,0 3.905,-3.905 3.905,-10.237 0,-14.143 l -20.863,-20.863 c 5.295,-4.343 10.995,-8.093 17.041,-11.244 l 65.082,65.083 c -4.668,8.964 -10.676,17.18 -17.962,24.467 -7.272,7.272 -15.489,13.278 -24.468,17.958 z m -72.515,7.428 c -4.852,-17.151 -4.974,-35.116 -0.471,-52.129 l 52.611,52.61 c -17.01,4.506 -34.976,4.38 -52.14,-0.481 z M 316.46,196.1 c 4.856,17.149 4.981,35.11 0.477,52.123 l -52.632,-52.632 c 8.173,-2.168 16.592,-3.262 25.167,-3.262 9.131,0 18.181,1.275 26.988,3.771 z m -293.616,164.878 11.875,-11.3 c 0.061,-0.058 0.121,-0.117 0.18,-0.176 10.816,-10.825 24.216,-19.107 38.751,-23.953 16.336,-5.448 33.9,-6.542 50.796,-3.161 l 47.515,9.503 c 3.338,0.661 45.655,22.832 96.847,0.281 13.575,-6.418 24.455,-13.009 36.404,-24.959 28.021,-28.02 39.685,-66.911 33.306,-104.153 1.563,0.313 13.115,2.585 20.803,4.119 4.825,41.804 -9.836,84.05 -39.96,114.181 -39.121,39.111 -98.456,52.17 -151.449,30.309 -1.51,-0.622 -47.262,-9.647 -47.38,-9.671 -13.459,-2.696 -27.478,-1.826 -40.557,2.521 -10.768,3.601 -21.75,9.973 -30.85,19.042 L 37.231,374.88 c -0.06,0.057 -0.119,0.115 -0.177,0.173 -3.907,3.907 -10.23,3.909 -14.138,0 -3.882,-3.883 -3.907,-10.162 -0.072,-14.075 z"
     id="path133" /><g
     id="g135">
</g><g
     id="g137">
</g><g
     id="g139">
</g><g
     id="g141">
</g><g
     id="g143">
</g><g
     id="g145">
</g><g
     id="g147">
</g><g
     id="g149">
</g><g
     id="g151">
</g><g
     id="g153">
</g><g
     id="g155">
</g><g
     id="g157">
</g><g
     id="g159">
</g><g
     id="g161">
</g><g
     id="g163">
</g></g>
</svg>
