<svg xmlns="http://www.w3.org/2000/svg" xml:space="preserve" width="512" height="512"><path style="fill:#ed4c74" d="m199.98 386.143-3.18-15.89-24.811-15.26-18.27 3.84 7.03 35.161c3.079 15.304.85 31.432-6.36 45.241-7.723 15.044-17.637 21.403-24.531 28.621-7.81 7.81-7.81 20.47 0 28.281 7.81 7.81 20.48 7.81 28.291 0 4.912-5.665 27.156-20.579 38.351-54.061 6-18.012 7.2-37.352 3.48-55.933z" transform="matrix(.60938 0 0 .60938 100 100)"/><path style="fill:#78d4ff" d="M382.124 15.845c7.81 7.81 7.81 20.47 0 28.281l-13.4 13.98a69.312 69.312 0 0 0-12.56 17.21 69.463 69.463 0 0 0-4.15 9.82 69.23 69.23 0 0 0-2.21 35.431l7.03 35.151-13.84 8.27c-10.69-4.41-18.18-17.85-29.231-19.68l-3.18-15.9a109.172 109.172 0 0 1 3.49-55.921c5.32-15.99 14.44-30.751 26.361-42.661l13.4-13.98c7.809-7.811 20.48-7.811 28.29-.001zM368.253 198.799l.01-.03-22.27-13.78-21.54 3.11c13.211 39.079 3.461 82.272-26.311 112.042-29.677 29.677-72.838 39.567-112.052 26.311-18.671-6.291 6.263-.471-43.781-10.69-9.211-.975-36.207-11.578-71.822.3-30.882 10.293-44.865 29.566-54.641 37.771-7.81 7.81-7.81 20.48 0 28.291 7.81 7.81 20.47 7.81 28.281 0 11.75-10.639 19.832-21.705 39.021-28.121 25.983-8.638 43.566.896 70.572 4.83l10.38 2.08c55.668 22.965 119.271 10.57 162.333-32.481 34.69-34.701 49.591-82.882 41.82-129.633z" transform="matrix(.60938 0 0 .60938 100 100)"/><path style="fill:#ed4c74" d="M496.136 130.438c-7.81-7.81-20.47-7.81-28.281 0-11.357 10.613-19.732 23.19-40.431 30.111-25.947 8.648-43.56-.889-70.592-4.83l-10.37-2.07a149.908 149.908 0 0 0-32.701-9.34c-46.761-7.77-94.942 7.13-129.633 41.821-34.691 34.691-49.591 82.872-41.821 129.633l43.781 10.69c-13.2-39.092-3.439-82.283 26.321-112.042 29.749-29.749 72.97-39.528 112.042-26.311 17.479 5.869-4.383.997 43.811 10.67 20.822 4.201 41.97 9.671 71.812-.27 32.675-10.926 47.257-32.214 56.061-39.781 7.811-7.811 7.811-20.471.001-28.281z" transform="matrix(.60938 0 0 .60938 100 100)"/><path d="M354.399 148.786a6.087 6.087 0 0 0 0-8.617 6.092 6.092 0 1 0-8.617 8.617 6.087 6.087 0 0 0 8.617 0zM259.602 260.822a6.092 6.092 0 0 0 0 8.616 6.087 6.087 0 0 0 8.617 0 6.087 6.087 0 0 0 0-8.616c-2.377-2.383-6.234-2.377-8.617 0zM148.437 354.4c2.377-2.377 2.285-6.143-.097-8.52-2.377-2.382-6.143-2.474-8.525-.097a6.094 6.094 0 1 0 8.623 8.617z"/><path d="m131.14 337.226 7.25-6.901.109-.105c1.6-1.6 3.344-3.038 5.216-4.308l42.716 42.717a35.735 35.735 0 0 1-4.256 5.163l-2.937 2.795-13.567-13.566a6.094 6.094 0 0 0-8.618 8.618l14.194 14.193c-3.187 6.657-2.158 15.076 3.575 20.81 7.067 7.066 18.596 7.2 25.8.057l7.246-6.9.105-.102c7.918-7.912 13.986-17.724 17.55-28.381 6.691-20.088 2.063-38.133 2.025-38.653 27.525 2.032 55.386-7.925 75.681-28.215 20.05-20.056 30.276-47.827 28.219-75.684 13.044 2.644 25.62 2.32 38.655-2.024 10.65-3.561 20.463-9.629 28.373-17.546l8.166-8.165c7.143-7.144 7.145-18.707 0-25.852-5.731-5.731-14.15-6.762-20.81-3.576l-14.194-14.193a6.095 6.095 0 0 0-8.618 8.618l13.46 13.46-3.856 3.857a35.883 35.883 0 0 1-5.215 4.308l-42.719-42.719a35.936 35.936 0 0 1 4.31-5.213l.09-.092 8.125-8.478c7.077-7.132 7.06-18.69-.05-25.802-7.13-7.128-18.729-7.128-25.858 0l-.09.092-8.12 8.472a72.83 72.83 0 0 0-17.488 28.33 72.63 72.63 0 0 0-2.323 37.202l.29 1.45c-27.86-2.057-55.63 8.17-75.68 28.22-20.051 20.05-30.277 47.82-28.22 75.681l-1.45-.29a72.684 72.684 0 0 0-37.2 2.315 72.911 72.911 0 0 0-28.324 17.488l-7.247 6.897-.109.105c-7.128 7.13-7.128 18.73 0 25.859 7.1 7.098 18.653 7.134 25.794.058zm57.354-13.38c2.242 14.13 5.956 21.254 3.218 32.827l-36.039-36.039a36.12 36.12 0 0 1 15.386-.277zm25.469 43.612c-2.957 8.845-7.989 16.994-14.553 23.568l-7.24 6.895a8.55 8.55 0 0 0-.107.103 6.094 6.094 0 0 1-8.62 0 6.088 6.088 0 0 1-.045-8.57l7.236-6.887c.037-.034.073-.07.109-.105 5.59-5.59 9.475-12.32 11.661-18.863 5.54-16.65.136-28.562-.836-36.532a97.81 97.81 0 0 0 13.186 3.772c.28 2.954 5.509 17.71-.791 36.619zm108.662-177.744c-2.23-14.07-5.956-21.22-3.209-32.82l36.034 36.034c-11.58 2.744-18.635-.963-32.825-3.214zm-25.455-43.618a60.578 60.578 0 0 1 14.68-23.703l8.114-8.465a6.103 6.103 0 0 1 8.583.038 6.099 6.099 0 0 1 0 8.615l-.09.092-8.123 8.475a48.444 48.444 0 0 0-11.608 18.808c-5.56 16.693-.128 28.706.825 36.537a97.758 97.758 0 0 0-13.18-3.77c-.281-2.96-5.516-17.724.8-36.627zm-80.656 71.637c23.81-23.81 59.962-31.804 92.289-18.47 1.034.427-.513-.025 28.867 5.887a48.217 48.217 0 0 0 24.725-1.536 48.492 48.492 0 0 0 18.85-11.653l8.165-8.165a6.088 6.088 0 0 1 8.615 0 6.088 6.088 0 0 1 0 8.615l-8.167 8.167c-6.583 6.589-14.75 11.639-23.612 14.602a60.52 60.52 0 0 1-30.945 1.93c-28.713-5.83-28.96-5.652-30.159-6.167-8.772-3.76-18.551-5.929-28.744-5.929-19.29 0-37.627 7.693-51.269 21.334-16.856 16.857-24.239 40.45-20.297 63.479l-12.671-2.534c-2.935-25.474 6-51.208 24.353-69.56zm45.947 71.802-39.658-39.658a60.282 60.282 0 0 1 6.851-10.385l12.714 12.714a6.095 6.095 0 0 0 8.618-8.619l-12.713-12.713a60.27 60.27 0 0 1 10.384-6.852l39.66 39.66a60.664 60.664 0 0 1-10.946 14.91 60.72 60.72 0 0 1-14.91 10.943zm-44.19 4.527a60.087 60.087 0 0 1-.286-31.767l32.06 32.06c-10.366 2.746-21.314 2.669-31.773-.293zm74.572-74.563a60.043 60.043 0 0 1 .29 31.763l-32.072-32.073a59.667 59.667 0 0 1 15.336-1.988c5.564 0 11.08.777 16.446 2.298zM113.92 319.972l7.237-6.886.11-.107a60.675 60.675 0 0 1 23.613-14.596 60.484 60.484 0 0 1 30.954-1.927l28.955 5.791c2.034.403 27.82 13.914 59.016.172 8.272-3.911 14.902-7.928 22.184-15.21 17.075-17.075 24.183-40.774 20.296-63.468.952.19 7.992 1.575 12.677 2.51 2.94 25.474-5.994 51.218-24.351 69.579-23.84 23.833-59.997 31.791-92.29 18.47-.92-.38-28.8-5.88-28.872-5.894a48.36 48.36 0 0 0-24.714 1.537c-6.562 2.194-13.254 6.077-18.8 11.603l-7.248 6.898-.107.105a6.088 6.088 0 0 1-8.616 0 6.096 6.096 0 0 1-.044-8.577z"/></svg>