<svg xmlns="http://www.w3.org/2000/svg" height="512" width="512" data-name="icon"><path fill="#e90d39" d="M236.501 148.749a77.653 77.653 0 0 0-24.373-29.248 78.35 78.35 0 0 0-43.872-14.624 73.159 73.159 0 0 0 0 73.12l1.18 1.672M275.499 148.749a77.653 77.653 0 0 1 24.373-29.248 78.35 78.35 0 0 1 43.872-14.624 73.159 73.159 0 0 1 0 73.12l-1.082 1.804"/><path fill="#d0d2d3" d="M358.368 226.744v76.483a77.995 77.995 0 0 1-34.708 64.882l-56.838 35.73a19.67 19.67 0 0 1-20.571.683c-.39-.243-.732-.438-1.073-.682l-56.838-35.731a77.995 77.995 0 0 1-34.708-64.882v-76.483a77.995 77.995 0 0 1 77.995-77.995h48.746a77.995 77.995 0 0 1 77.995 77.995z"/><path opacity=".3" fill="#f0f1f1" d="M246.25 148.749v255.773c-.39-.243-.73-.438-1.072-.682l-56.838-35.731a77.995 77.995 0 0 1-34.708-64.882v-76.483a77.995 77.995 0 0 1 77.995-77.995z"/><path fill="#470718" d="M236.501 280.365V265.96a34.123 34.123 0 0 0-23.33-32.392l-35.166-11.7s9.75 53.622 58.496 58.497zM275.499 280.365V265.96a34.123 34.123 0 0 1 23.33-32.392l35.166-11.7s-9.75 53.622-58.496 58.497z"/><g fill="#1e0202"><path d="M148.758 303.217a82.757 82.757 0 0 0 37.013 69.02l56.712 35.649A24.417 24.417 0 0 0 256.034 412a24.105 24.105 0 0 0 13.376-4.041l56.931-35.795a82.703 82.703 0 0 0 36.901-68.947 4.875 4.875 0 0 0-4.874-4.874 4.816 4.816 0 0 0-4.578 3.412l-31.982 18.25a4.875 4.875 0 1 0 4.836 8.463l26.07-14.897a72.842 72.842 0 0 1-31.686 50.409l-56.917 35.814a14.624 14.624 0 0 1-16.335-.073l-56.706-35.668a72.94 72.94 0 0 1-31.803-50.482l26.05 14.897a4.875 4.875 0 0 0 4.836-8.462l-31.646-18.095v-21.936l41.079 28.76a4.875 4.875 0 1 0 5.586-7.99l-46.665-32.67v-21.833a4.875 4.875 0 0 0-9.75 0z"/><path d="M153.632 231.618a4.875 4.875 0 0 0 4.875-4.874 73.198 73.198 0 0 1 73.12-73.12h48.746a73.198 73.198 0 0 1 73.12 73.12v41.332l-46.665 32.66a4.875 4.875 0 1 0 5.586 7.99l41.08-28.746v.385a4.875 4.875 0 0 0 9.748 0v-53.621a82.352 82.352 0 0 0-14.819-47.163 77.965 77.965 0 0 0-.453-77.141 4.797 4.797 0 0 0-4.333-2.438 83.683 83.683 0 0 0-46.622 15.546 82.46 82.46 0 0 0-24.5 28.326h-33.03a82.46 82.46 0 0 0-24.5-28.326 83.771 83.771 0 0 0-46.622-15.546 5.187 5.187 0 0 0-4.338 2.438 77.858 77.858 0 0 0-.434 77.102 82.348 82.348 0 0 0-14.833 47.202 4.875 4.875 0 0 0 4.874 4.874zm149.096-108.164a73.607 73.607 0 0 1 38.193-13.57 68.084 68.084 0 0 1 .839 61.39 83.19 83.19 0 0 0-25.1-18.913l11.485-15.311a4.875 4.875 0 1 0-7.8-5.85l-12.961 17.286a82.304 82.304 0 0 0-23.735-4.446 72.252 72.252 0 0 1 19.08-20.586zm-139.347 15.707a68.767 68.767 0 0 1 7.702-29.282 73.71 73.71 0 0 1 38.193 13.57 72.252 72.252 0 0 1 19.08 20.591 82.304 82.304 0 0 0-23.735 4.446L191.655 131.2a4.875 4.875 0 1 0-7.8 5.85l11.48 15.311a83.196 83.196 0 0 0-25.095 18.909 68.294 68.294 0 0 1-6.859-32.11zM224.412 350.794A24.446 24.446 0 0 0 256 344.296a24.28 24.28 0 0 0 31.588 6.498l4.952-2.827a4.875 4.875 0 0 0 1.029-.785l9.75-9.75-6.893-6.892-9.287 9.296-4.387 2.505a14.624 14.624 0 0 1-21.877-12.708v-24.895h-9.75v24.895a14.624 14.624 0 0 1-21.877 12.674l-5.187-2.954-9.75-4.875-4.362 8.721 9.51 4.748z"/><path d="M231.627 207.245a4.875 4.875 0 0 0 0-9.75h-19.499a4.875 4.875 0 0 0 0 9.75zM275.499 202.37a4.875 4.875 0 0 0 4.874 4.875h19.499a4.875 4.875 0 0 0 0-9.75h-19.499a4.875 4.875 0 0 0-4.874 4.875zM174.813 218.184a4.875 4.875 0 0 0-1.6 4.557c.098.59 10.998 57.297 62.8 62.498h.488a4.875 4.875 0 0 0 4.875-4.874V265.96a38.949 38.949 0 0 0-26.664-36.994l-35.166-11.699a4.836 4.836 0 0 0-4.733.917zm36.828 20.03a29.214 29.214 0 0 1 19.986 27.746v8.775c-29.736-5.66-42.078-31.715-46.583-45.393zM338.786 222.741a4.875 4.875 0 0 0-6.337-5.493l-35.166 11.699a38.949 38.949 0 0 0-26.659 37.013v14.405a4.875 4.875 0 0 0 4.875 4.874h.487c51.803-5.2 62.703-61.908 62.8-62.498zm-58.413 52.003v-8.774a29.214 29.214 0 0 1 19.986-27.747l26.582-8.857c-4.49 13.664-16.832 39.719-46.568 45.378zM280.373 168.248H275.5a4.875 4.875 0 0 0 0 9.749h4.874a4.875 4.875 0 0 0 0-9.75zM299.872 177.997a4.875 4.875 0 0 0 0-9.75h-4.875a4.875 4.875 0 0 0 0 9.75z"/></g></svg>